%TF.GenerationSoftware,KiCad,Pcbnew,8.0.1*%
%TF.CreationDate,2024-11-08T11:16:20-04:00*%
%TF.ProjectId,Drops MkII Blobby,44726f70-7320-44d6-9b49-4920426c6f62,rev?*%
%TF.SameCoordinates,Original*%
%TF.FileFunction,Profile,NP*%
%FSLAX46Y46*%
G04 Gerber Fmt 4.6, Leading zero omitted, Abs format (unit mm)*
G04 Created by KiCad (PCBNEW 8.0.1) date 2024-11-08 11:16:20*
%MOMM*%
%LPD*%
G01*
G04 APERTURE LIST*
%TA.AperFunction,Profile*%
%ADD10C,0.100000*%
%TD*%
G04 APERTURE END LIST*
D10*
%TO.C,G\u002A\u002A\u002A*%
X116691949Y-89391309D02*
X116707121Y-88962429D01*
X116692077Y-89440157D02*
X116691949Y-89391309D01*
X116707121Y-88962429D02*
X116747527Y-88528882D01*
X116747527Y-88528882D02*
X116807301Y-88127019D01*
X116771317Y-90371548D02*
X116692077Y-89440157D01*
X116807301Y-88127019D02*
X116880578Y-87793192D01*
X116813071Y-135334595D02*
X116878919Y-134507294D01*
X116814691Y-136173518D02*
X116813071Y-135334595D01*
X116878919Y-134507294D02*
X117009768Y-133726941D01*
X116880578Y-87793192D02*
X116961489Y-87563751D01*
X116886245Y-136988735D02*
X116814691Y-136173518D01*
X116961489Y-87563751D02*
X116995929Y-87507766D01*
X116992226Y-91264518D02*
X116771317Y-90371548D01*
X116995929Y-87507766D02*
X117057759Y-87377604D01*
X117009768Y-133726941D02*
X117203152Y-133028867D01*
X117030199Y-137744917D02*
X116886245Y-136988735D01*
X117057759Y-87377604D02*
X117115137Y-87178016D01*
X117090963Y-137980738D02*
X117030199Y-137744917D01*
X117115137Y-87178016D02*
X117116519Y-87171626D01*
X117116519Y-87171626D02*
X117172378Y-86999879D01*
X117172378Y-86999879D02*
X117236280Y-86919267D01*
X117203152Y-133028867D02*
X117391208Y-132573517D01*
X117236280Y-86919267D02*
X117242387Y-86918405D01*
X117242387Y-86918405D02*
X117300679Y-86853093D01*
X117254046Y-138558749D02*
X117090963Y-137980738D01*
X117300679Y-86853093D02*
X117314110Y-86762577D01*
X117314110Y-86762577D02*
X117342817Y-86635910D01*
X117342817Y-86635910D02*
X117382572Y-86606749D01*
X117348472Y-92099844D02*
X116992226Y-91264518D01*
X117382572Y-86606749D02*
X117454501Y-86541984D01*
X117391208Y-132573517D02*
X117449374Y-132414288D01*
X117421452Y-139049904D02*
X117254046Y-138558749D01*
X117449374Y-132414288D02*
X117505179Y-132203425D01*
X117454501Y-86541984D02*
X117541462Y-86383123D01*
X117505179Y-132203425D02*
X117561962Y-132032782D01*
X117541462Y-86383123D02*
X117553960Y-86353528D01*
X117553960Y-86353528D02*
X117664912Y-86149102D01*
X117561962Y-132032782D02*
X117626397Y-131953471D01*
X117613388Y-139503818D02*
X117421452Y-139049904D01*
X117626397Y-131953471D02*
X117631958Y-131952761D01*
X117631958Y-131952761D02*
X117696492Y-131889971D01*
X117664912Y-86149102D02*
X117791949Y-86002394D01*
X117696492Y-131889971D02*
X117703681Y-131841609D01*
X117703681Y-131841609D02*
X117742544Y-131729994D01*
X117742544Y-131729994D02*
X117846843Y-131522359D01*
X117791949Y-86002394D02*
X117797155Y-85998496D01*
X117797155Y-85998496D02*
X117909010Y-85892753D01*
X117833725Y-92858304D02*
X117348472Y-92099844D01*
X117846843Y-131522359D02*
X117998139Y-131254013D01*
X117850064Y-139970106D02*
X117613388Y-139503818D01*
X117909010Y-85892753D02*
X117937423Y-85835046D01*
X117937423Y-85835046D02*
X117989663Y-85752152D01*
X117989663Y-85752152D02*
X118124457Y-85597471D01*
X117998139Y-131254013D02*
X118092561Y-131096831D01*
X118062626Y-93155200D02*
X117833725Y-92858304D01*
X118092561Y-131096831D02*
X118266640Y-130800282D01*
X118124457Y-85597471D02*
X118308922Y-85403888D01*
X118151687Y-140498383D02*
X117850064Y-139970106D01*
X118206210Y-140590932D02*
X118151687Y-140498383D01*
X118246243Y-93384175D02*
X118062626Y-93155200D01*
X118266640Y-130800282D02*
X118408130Y-130535145D01*
X118308922Y-85403888D02*
X118510174Y-85204286D01*
X118347446Y-140835317D02*
X118206210Y-140590932D01*
X118399522Y-93555467D02*
X118246243Y-93384175D01*
X118408130Y-130535145D02*
X118496340Y-130341334D01*
X118445869Y-141012686D02*
X118347446Y-140835317D01*
X118482822Y-141089721D02*
X118445869Y-141012686D01*
X118488342Y-141113460D02*
X118482822Y-141089721D01*
X118496340Y-130341334D02*
X118513957Y-130283889D01*
X118510174Y-85204286D02*
X118695328Y-85031552D01*
X118513957Y-130283889D02*
X118569416Y-130103544D01*
X118555728Y-93703182D02*
X118399522Y-93555467D01*
X118569416Y-130103544D02*
X118669268Y-129867279D01*
X118576418Y-141249695D02*
X118488342Y-141113460D01*
X118669268Y-129867279D02*
X118709433Y-129785145D01*
X118695328Y-85031552D02*
X118831499Y-84918568D01*
X118709433Y-129785145D02*
X118808639Y-129564770D01*
X118748126Y-93861424D02*
X118555728Y-93703182D01*
X118755964Y-141460936D02*
X118576418Y-141249695D01*
X118808639Y-129564770D02*
X118866396Y-129386327D01*
X118831499Y-84918568D02*
X118879831Y-84892638D01*
X118866396Y-129386327D02*
X118872393Y-129341144D01*
X118872393Y-129341144D02*
X118909398Y-129258119D01*
X118879831Y-84892638D02*
X118969423Y-84836698D01*
X118909398Y-129258119D02*
X118950307Y-129264724D01*
X118950307Y-129264724D02*
X119023343Y-129269792D01*
X118969423Y-84836698D02*
X119043281Y-84751931D01*
X119006450Y-141727014D02*
X118755964Y-141460936D01*
X119009980Y-94064299D02*
X118748126Y-93861424D01*
X119023343Y-129269792D02*
X119029375Y-129249844D01*
X119029375Y-129249844D02*
X119032157Y-129164365D01*
X119032157Y-129164365D02*
X119039905Y-128934300D01*
X119039905Y-128934300D02*
X119052237Y-128570797D01*
X119043281Y-84751931D02*
X119153849Y-84661199D01*
X119052237Y-128570797D02*
X119068772Y-128085006D01*
X119068772Y-128085006D02*
X119089130Y-127488077D01*
X119089130Y-127488077D02*
X119112929Y-126791159D01*
X119112929Y-126791159D02*
X119139790Y-126005402D01*
X119139790Y-126005402D02*
X119169332Y-125141956D01*
X119142883Y-94168371D02*
X119009980Y-94064299D01*
X119153849Y-84661199D02*
X119370968Y-84526464D01*
X119169332Y-125141956D02*
X119201172Y-124211969D01*
X119201172Y-124211969D02*
X119234932Y-123226592D01*
X119234932Y-123226592D02*
X119235401Y-123212910D01*
X119235401Y-123212910D02*
X119303892Y-121214083D01*
X119304992Y-121181978D02*
X119303892Y-121214083D01*
X119304992Y-121181978D02*
X119338771Y-120193089D01*
X119307346Y-142027758D02*
X119006450Y-141727014D01*
X119338771Y-120193089D02*
X119370619Y-119258176D01*
X119357500Y-94346324D02*
X119142883Y-94168371D01*
X119370619Y-119258176D02*
X119400152Y-118388588D01*
X119370968Y-84526464D02*
X119658492Y-84366335D01*
X119400152Y-118388588D02*
X119426990Y-117595671D01*
X119426990Y-117595671D02*
X119450749Y-116890771D01*
X119450749Y-116890771D02*
X119471046Y-116285237D01*
X119471046Y-116285237D02*
X119487499Y-115790414D01*
X119487499Y-115790414D02*
X119499727Y-115417650D01*
X119497893Y-94476786D02*
X119357500Y-94346324D01*
X119499727Y-115417650D02*
X119507345Y-115178291D01*
X119507345Y-115178291D02*
X119509970Y-115084356D01*
X119509970Y-115084356D02*
X119512643Y-114970481D01*
X119512643Y-114970481D02*
X119519839Y-114713056D01*
X119519839Y-114713056D02*
X119531179Y-114324283D01*
X119531179Y-114324283D02*
X119546285Y-113816363D01*
X119536573Y-94600021D02*
X119538641Y-94537024D01*
X119538641Y-94537024D02*
X119497893Y-94476786D01*
X119546285Y-113816363D02*
X119564779Y-113201498D01*
X119564779Y-113201498D02*
X119586282Y-112491888D01*
X119586282Y-112491888D02*
X119610416Y-111699735D01*
X119594589Y-94739539D02*
X119536573Y-94600021D01*
X119610416Y-111699735D02*
X119636801Y-110837241D01*
X119636801Y-110837241D02*
X119665061Y-109916607D01*
X119638120Y-142342998D02*
X119307346Y-142027758D01*
X119658492Y-84366335D02*
X119980275Y-84199419D01*
X119665061Y-109916607D02*
X119694816Y-108950034D01*
X119680905Y-94927909D02*
X119594589Y-94739539D01*
X119694816Y-108950034D02*
X119694840Y-108949248D01*
X119694840Y-108949248D02*
X119756608Y-106950202D01*
X119757299Y-106927878D02*
X119756608Y-106950202D01*
X119757299Y-106927878D02*
X119758281Y-106896218D01*
X119758281Y-106896218D02*
X119820327Y-104897180D01*
X119797809Y-95312193D02*
X119680905Y-94927909D01*
X119821222Y-104868385D02*
X119820327Y-104897180D01*
X119821222Y-104868385D02*
X119852778Y-103855140D01*
X119852778Y-103855140D02*
X119883559Y-102869164D01*
X119883559Y-102869164D02*
X119913187Y-101922660D01*
X119888726Y-95774496D02*
X119797809Y-95312193D01*
X119913187Y-101922660D02*
X119941282Y-101027828D01*
X119941282Y-101027828D02*
X119967468Y-100196870D01*
X119943009Y-96268099D02*
X119888726Y-95774496D01*
X119946613Y-96320220D02*
X119943009Y-96268099D01*
X119967468Y-100196870D02*
X119991364Y-99441987D01*
X119973300Y-96583341D02*
X119946613Y-96320220D01*
X119978242Y-142652565D02*
X119638120Y-142342998D01*
X119980275Y-84199419D02*
X120300173Y-84044324D01*
X119991364Y-99441987D02*
X120012593Y-98775380D01*
X120004290Y-96714213D02*
X119973300Y-96583341D01*
X120012593Y-98775380D02*
X120030777Y-98209252D01*
X120030777Y-98209252D02*
X120045537Y-97755803D01*
X120037021Y-96701047D02*
X120004290Y-96714213D01*
X120045537Y-97755803D02*
X120056495Y-97427235D01*
X120048320Y-96683906D02*
X120037021Y-96701047D01*
X120056495Y-97427235D02*
X120063271Y-97235749D01*
X120063271Y-97235749D02*
X120064405Y-97207489D01*
X120064405Y-97207489D02*
X120071130Y-96931909D01*
X120065307Y-96748856D02*
X120048320Y-96683906D01*
X120071130Y-96931909D02*
X120065307Y-96748856D01*
X120300173Y-84044324D02*
X120582038Y-83919657D01*
X120307180Y-142936289D02*
X119978242Y-142652565D01*
X120582038Y-83919657D02*
X120789726Y-83844025D01*
X120604405Y-143174000D02*
X120307180Y-142936289D01*
X120770235Y-143293331D02*
X120604405Y-143174000D01*
X120789726Y-83844025D02*
X120823601Y-83835435D01*
X120823601Y-83835435D02*
X121062109Y-83785180D01*
X121062109Y-83785180D02*
X121209816Y-83755214D01*
X121119594Y-143520889D02*
X120770235Y-143293331D01*
X121209816Y-83755214D02*
X121424291Y-83708913D01*
X121424291Y-83708913D02*
X121671608Y-83650789D01*
X121519556Y-143760010D02*
X121119594Y-143520889D01*
X121671608Y-83650789D02*
X121677301Y-83649388D01*
X121677301Y-83649388D02*
X121822747Y-83631814D01*
X121822747Y-83631814D02*
X122109569Y-83613767D01*
X121934162Y-143990956D02*
X121519556Y-143760010D01*
X122109569Y-83613767D02*
X122523314Y-83595562D01*
X122327450Y-144193992D02*
X121934162Y-143990956D01*
X122523314Y-83595562D02*
X123049532Y-83577515D01*
X122663460Y-144349379D02*
X122327450Y-144193992D01*
X122906233Y-144437382D02*
X122663460Y-144349379D01*
X123026276Y-144468457D02*
X122906233Y-144437382D01*
X123049532Y-83577515D02*
X123673772Y-83559941D01*
X123139976Y-144497789D02*
X123026276Y-144468457D01*
X123196813Y-144519310D02*
X123139976Y-144497789D01*
X123339545Y-144588788D02*
X123196813Y-144519310D01*
X123415704Y-144598221D02*
X123339545Y-144588788D01*
X123639388Y-144612846D02*
X123415704Y-144598221D01*
X123673772Y-83559941D02*
X124381581Y-83543156D01*
X123999801Y-144631509D02*
X123639388Y-144612846D01*
X124381581Y-83543156D02*
X125158509Y-83527476D01*
X124486933Y-144653865D02*
X123999801Y-144631509D01*
X125090773Y-144679567D02*
X124486933Y-144653865D01*
X125158509Y-83527476D02*
X125990105Y-83513215D01*
X125801312Y-144708271D02*
X125090773Y-144679567D01*
X125990105Y-83513215D02*
X126861918Y-83500690D01*
X126608541Y-144739628D02*
X125801312Y-144708271D01*
X126861918Y-83500690D02*
X127759495Y-83490216D01*
X127502450Y-144773295D02*
X126608541Y-144739628D01*
X127759495Y-83490216D02*
X128668387Y-83482108D01*
X128473030Y-144808925D02*
X127502450Y-144773295D01*
X128668387Y-83482108D02*
X129574141Y-83476682D01*
X129510270Y-144846172D02*
X128473030Y-144808925D01*
X129510270Y-144846172D02*
X129604780Y-144849500D01*
X129574141Y-83476682D02*
X129591076Y-83476608D01*
X129591076Y-83476608D02*
X131622335Y-83467744D01*
X131603564Y-144919254D02*
X129604780Y-144849500D01*
X131622335Y-83467744D02*
X132265917Y-83802572D01*
X131744694Y-144924135D02*
X131603564Y-144919254D01*
X131744694Y-144924135D02*
X131922435Y-144930178D01*
X132265917Y-83802572D02*
X132594962Y-83987907D01*
X132594962Y-83987907D02*
X132907899Y-84188374D01*
X132907899Y-84188374D02*
X133151080Y-84368887D01*
X133151080Y-84368887D02*
X133206379Y-84417626D01*
X133206379Y-84417626D02*
X133494573Y-84738022D01*
X133494573Y-84738022D02*
X133781373Y-85138975D01*
X133781373Y-85138975D02*
X134032550Y-85565878D01*
X133921299Y-144997581D02*
X131922435Y-144930178D01*
X134032550Y-85565878D02*
X134213877Y-85964124D01*
X134125645Y-145004415D02*
X133921299Y-144997581D01*
X134125645Y-145004415D02*
X134346585Y-145011683D01*
X134213877Y-85964124D02*
X134256156Y-86092384D01*
X134256156Y-86092384D02*
X134382245Y-86545489D01*
X134382245Y-86545489D02*
X134476516Y-86921614D01*
X134476516Y-86921614D02*
X134544290Y-87259488D01*
X134544290Y-87259488D02*
X134590887Y-87597840D01*
X134590887Y-87597840D02*
X134621627Y-87975401D01*
X134621627Y-87975401D02*
X134641831Y-88430900D01*
X134641831Y-88430900D02*
X134656818Y-89003067D01*
X134656818Y-89003067D02*
X134656976Y-89010229D01*
X134656976Y-89010229D02*
X134672166Y-89641446D01*
X134672166Y-89641446D02*
X134688713Y-90137987D01*
X134688713Y-90137987D02*
X134709524Y-90520997D01*
X134709524Y-90520997D02*
X134737503Y-90811622D01*
X134737503Y-90811622D02*
X134775558Y-91031006D01*
X134775558Y-91031006D02*
X134826594Y-91200294D01*
X134826594Y-91200294D02*
X134893517Y-91340631D01*
X134893517Y-91340631D02*
X134979234Y-91473161D01*
X134979234Y-91473161D02*
X134999327Y-91501197D01*
X134999327Y-91501197D02*
X135220536Y-91732186D01*
X135220536Y-91732186D02*
X135486677Y-91855973D01*
X135486677Y-91855973D02*
X135824089Y-91878224D01*
X135824089Y-91878224D02*
X136259110Y-91804598D01*
X136259110Y-91804598D02*
X136328943Y-91787055D01*
X136328943Y-91787055D02*
X136582320Y-91716005D01*
X136345521Y-145076888D02*
X134346585Y-145011683D01*
X136573046Y-145084247D02*
X136345521Y-145076888D01*
X136573046Y-145084247D02*
X136797147Y-145091368D01*
X136582320Y-91716005D02*
X136817333Y-91634725D01*
X136817333Y-91634725D02*
X137054852Y-91531503D01*
X137054852Y-91531503D02*
X137315749Y-91394627D01*
X137315749Y-91394627D02*
X137620894Y-91212384D01*
X137620894Y-91212384D02*
X137991160Y-90973064D01*
X137991160Y-90973064D02*
X138447416Y-90664953D01*
X138447416Y-90664953D02*
X138965960Y-90307269D01*
X138796156Y-145154295D02*
X136797147Y-145091368D01*
X138965960Y-90307269D02*
X139209474Y-90148932D01*
X139006821Y-145160864D02*
X138796156Y-145154295D01*
X139006821Y-145160864D02*
X139194040Y-145166581D01*
X139209474Y-90148932D02*
X139406265Y-90040457D01*
X139406265Y-90040457D02*
X139520849Y-90000908D01*
X139520849Y-90000908D02*
X139531601Y-90003410D01*
X139531601Y-90003410D02*
X139620024Y-89977424D01*
X139620024Y-89977424D02*
X139753170Y-89860325D01*
X139753170Y-89860325D02*
X139784517Y-89824724D01*
X139784517Y-89824724D02*
X139873003Y-89732909D01*
X139873003Y-89732909D02*
X139990948Y-89642352D01*
X139990948Y-89642352D02*
X140160421Y-89541191D01*
X140160421Y-89541191D02*
X140403490Y-89417564D01*
X140403490Y-89417564D02*
X140742224Y-89259610D01*
X140742224Y-89259610D02*
X141198693Y-89055467D01*
X141193130Y-145226911D02*
X139194040Y-145166581D01*
X141198693Y-89055467D02*
X141294262Y-89013254D01*
X141294262Y-89013254D02*
X141526274Y-88923915D01*
X141346892Y-145231497D02*
X141193130Y-145226911D01*
X141346892Y-145231497D02*
X141457185Y-145234698D01*
X141526274Y-88923915D02*
X141718743Y-88871772D01*
X141718743Y-88871772D02*
X141769788Y-88866258D01*
X141769788Y-88866258D02*
X141910364Y-88839777D01*
X141910364Y-88839777D02*
X142146402Y-88770098D01*
X142146402Y-88770098D02*
X142428666Y-88671866D01*
X142428666Y-88671866D02*
X142449452Y-88664085D01*
X142449452Y-88664085D02*
X142759411Y-88553806D01*
X142759411Y-88553806D02*
X143051746Y-88460420D01*
X143051746Y-88460420D02*
X143259509Y-88405027D01*
X143259509Y-88405027D02*
X143492811Y-88342567D01*
X143456370Y-145291786D02*
X141457185Y-145234698D01*
X143492811Y-88342567D02*
X143682308Y-88269671D01*
X143513182Y-145293382D02*
X143456370Y-145291786D01*
X143682308Y-88269671D02*
X143688037Y-88266733D01*
X143688037Y-88266733D02*
X143954153Y-88170413D01*
X143954153Y-88170413D02*
X144345997Y-88084761D01*
X144345997Y-88084761D02*
X144833710Y-88011775D01*
X144506135Y-145320178D02*
X143513182Y-145293382D01*
X144833710Y-88011775D02*
X145387434Y-87953454D01*
X144970146Y-145333131D02*
X144506135Y-145320178D01*
X145387434Y-87953454D02*
X145977308Y-87911798D01*
X145467919Y-145348792D02*
X144970146Y-145333131D01*
X145895159Y-145364159D02*
X145467919Y-145348792D01*
X145977308Y-87911798D02*
X146573475Y-87888806D01*
X146230553Y-145378395D02*
X145895159Y-145364159D01*
X146452788Y-145390661D02*
X146230553Y-145378395D01*
X146540550Y-145400122D02*
X146452788Y-145390661D01*
X146553671Y-145404144D02*
X146540550Y-145400122D01*
X146573475Y-87888806D02*
X147146074Y-87886477D01*
X146686043Y-145418241D02*
X146553671Y-145404144D01*
X146922356Y-145430709D02*
X146686043Y-145418241D01*
X147146074Y-87886477D02*
X147665248Y-87906811D01*
X147222298Y-145439236D02*
X146922356Y-145430709D01*
X147319756Y-145441777D02*
X147222298Y-145439236D01*
X147593539Y-145458333D02*
X147319756Y-145441777D01*
X147665248Y-87906811D02*
X148101137Y-87951806D01*
X147784622Y-145484400D02*
X147593539Y-145458333D01*
X147856442Y-145515575D02*
X147784622Y-145484400D01*
X147877972Y-145535312D02*
X147856442Y-145515575D01*
X148011463Y-145553863D02*
X147877972Y-145535312D01*
X148101137Y-87951806D02*
X148185154Y-87965617D01*
X148185154Y-87965617D02*
X148512095Y-88034410D01*
X148226534Y-145546066D02*
X148011463Y-145553863D01*
X148290129Y-145540234D02*
X148226534Y-145546066D01*
X148512095Y-88034410D02*
X148811054Y-88114959D01*
X148811054Y-88114959D02*
X149021736Y-88190838D01*
X149000681Y-145483330D02*
X148290129Y-145540234D01*
X149021736Y-88190838D02*
X149034701Y-88197073D01*
X149034701Y-88197073D02*
X149217627Y-88279962D01*
X149217627Y-88279962D02*
X149339249Y-88320149D01*
X149339249Y-88320149D02*
X149347610Y-88320859D01*
X149347610Y-88320859D02*
X149467190Y-88364544D01*
X149467190Y-88364544D02*
X149678827Y-88481870D01*
X149678827Y-88481870D02*
X149950468Y-88652246D01*
X149790707Y-145434762D02*
X149000681Y-145483330D01*
X149950468Y-88652246D02*
X150250065Y-88855080D01*
X150250065Y-88855080D02*
X150545564Y-89069781D01*
X150545564Y-89069781D02*
X150700307Y-89189918D01*
X150675461Y-145393919D02*
X149790707Y-145434762D01*
X150700307Y-89189918D02*
X151247112Y-89706765D01*
X150824238Y-128335835D02*
X150827939Y-128667479D01*
X150827939Y-128667479D02*
X150848313Y-128925561D01*
X150833317Y-127889623D02*
X150824238Y-128335835D01*
X150848313Y-128925561D02*
X150889252Y-129151088D01*
X150854584Y-127412278D02*
X150833317Y-127889623D01*
X150889252Y-129151088D02*
X150954649Y-129385067D01*
X150909616Y-126894992D02*
X150854584Y-127412278D01*
X150954649Y-129385067D02*
X150983916Y-129476179D01*
X150983916Y-129476179D02*
X151119197Y-129827844D01*
X151005019Y-126477252D02*
X150909616Y-126894992D01*
X151119197Y-129827844D02*
X151285175Y-130108642D01*
X151151337Y-126127916D02*
X151005019Y-126477252D01*
X151247112Y-89706765D02*
X151744624Y-90329377D01*
X151285175Y-130108642D02*
X151526527Y-130391042D01*
X151359112Y-125815840D02*
X151151337Y-126127916D01*
X151526527Y-130391042D02*
X151585170Y-130451447D01*
X151585170Y-130451447D02*
X151817976Y-130679661D01*
X151638886Y-125509880D02*
X151359112Y-125815840D01*
X151670194Y-145360184D02*
X150675461Y-145393919D01*
X151670194Y-145360184D02*
X151790457Y-145357259D01*
X151711732Y-125440000D02*
X151638886Y-125509880D01*
X151744624Y-90329377D02*
X152162023Y-91012205D01*
X151817976Y-130679661D02*
X152030677Y-130859361D01*
X152026692Y-125176591D02*
X151711732Y-125440000D01*
X152030677Y-130859361D02*
X152246187Y-130996726D01*
X152162023Y-91012205D02*
X152468493Y-91709700D01*
X152246187Y-130996726D02*
X152487417Y-131097934D01*
X152382099Y-124947513D02*
X152026692Y-125176591D01*
X152400517Y-108047609D02*
X152403222Y-108326923D01*
X152403222Y-108326923D02*
X152415157Y-108507986D01*
X152406139Y-107650896D02*
X152400517Y-108047609D01*
X152415157Y-108507986D02*
X152437227Y-108609943D01*
X152419182Y-107117638D02*
X152406139Y-107650896D01*
X152421989Y-107009300D02*
X152419182Y-107117638D01*
X152430784Y-106632365D02*
X152421989Y-107009300D01*
X152437227Y-108609943D02*
X152470337Y-108651941D01*
X152441762Y-106120785D02*
X152430784Y-106632365D01*
X152454633Y-105489736D02*
X152441762Y-106120785D01*
X152468493Y-91709700D02*
X152526647Y-91889325D01*
X152469109Y-104754392D02*
X152454633Y-105489736D01*
X152470337Y-108651941D02*
X152491879Y-108656442D01*
X152484902Y-103929928D02*
X152469109Y-104754392D01*
X152487417Y-131097934D02*
X152777282Y-131169165D01*
X152491879Y-108656442D02*
X152557937Y-108685657D01*
X152492331Y-111122057D02*
X152493136Y-111686520D01*
X152492631Y-110943085D02*
X152492331Y-111122057D01*
X152493136Y-111686520D02*
X152496704Y-112116263D01*
X152496704Y-112116263D02*
X152504769Y-112432392D01*
X152496837Y-110421922D02*
X152492631Y-110943085D01*
X152501722Y-103031520D02*
X152484902Y-103929928D01*
X152504769Y-112432392D02*
X152519063Y-112656011D01*
X152505392Y-109940720D02*
X152496837Y-110421922D01*
X152517508Y-109528444D02*
X152505392Y-109940720D01*
X152519063Y-112656011D02*
X152541318Y-112808227D01*
X152519282Y-102074343D02*
X152501722Y-103031520D01*
X152526647Y-91889325D02*
X152554845Y-91985880D01*
X152532399Y-109214060D02*
X152517508Y-109528444D01*
X152537293Y-101073571D02*
X152519282Y-102074343D01*
X152537293Y-101073571D02*
X152537811Y-101044225D01*
X152541318Y-112808227D02*
X152573266Y-112910143D01*
X152549276Y-109026534D02*
X152532399Y-109214060D01*
X152549773Y-109023304D02*
X152549276Y-109026534D01*
X152554845Y-91985880D02*
X152579327Y-92080611D01*
X152557937Y-108685657D02*
X152575444Y-108796396D01*
X152572775Y-99044531D02*
X152537811Y-101044225D01*
X152573266Y-112910143D02*
X152616640Y-112982865D01*
X152573512Y-99001946D02*
X152572775Y-99044531D01*
X152573512Y-99001946D02*
X152574154Y-98964385D01*
X152575444Y-108796396D02*
X152549773Y-109023304D01*
X152579327Y-92080611D02*
X152600163Y-92184108D01*
X152600163Y-92184108D02*
X152617424Y-92306961D01*
X152608133Y-96964673D02*
X152574154Y-98964385D01*
X152608721Y-96929833D02*
X152608133Y-96964673D01*
X152616640Y-112982865D02*
X152648160Y-113020478D01*
X152617424Y-92306961D02*
X152631179Y-92459760D01*
X152623379Y-96030979D02*
X152608721Y-96929833D01*
X152631179Y-92459760D02*
X152641498Y-92653094D01*
X152635159Y-95257380D02*
X152623379Y-96030979D01*
X152641498Y-92653094D02*
X152648450Y-92897554D01*
X152643992Y-94598445D02*
X152635159Y-95257380D01*
X152648160Y-113020478D02*
X152748585Y-113113241D01*
X152648450Y-92897554D02*
X152652106Y-93203729D01*
X152649807Y-94043585D02*
X152643992Y-94598445D01*
X152652106Y-93203729D02*
X152652535Y-93582209D01*
X152652535Y-93582209D02*
X152649807Y-94043585D01*
X152748585Y-113113241D02*
X152866185Y-113158864D01*
X152777282Y-131169165D02*
X153138695Y-131216597D01*
X152815373Y-124730971D02*
X152382099Y-124947513D01*
X152866185Y-113158864D02*
X153047774Y-113166179D01*
X153047774Y-113166179D02*
X153315362Y-113146315D01*
X153138695Y-131216597D02*
X153594568Y-131246410D01*
X153315362Y-113146315D02*
X153675179Y-113094178D01*
X153363932Y-124505172D02*
X152815373Y-124730971D01*
X153594568Y-131246410D02*
X154167815Y-131264781D01*
X153611320Y-124416377D02*
X153363932Y-124505172D01*
X153675179Y-113094178D02*
X154054379Y-113010471D01*
X153790017Y-145316004D02*
X151790457Y-145357259D01*
X153836370Y-124357043D02*
X153611320Y-124416377D01*
X154050614Y-145311588D02*
X153790017Y-145316004D01*
X154054379Y-113010471D02*
X154268933Y-112947025D01*
X154076800Y-124324380D02*
X153836370Y-124357043D01*
X154167815Y-131264781D02*
X154634969Y-131273868D01*
X154268933Y-112947025D02*
X154632009Y-112842202D01*
X154379359Y-124312126D02*
X154076800Y-124324380D01*
X154632009Y-112842202D02*
X155104231Y-112734716D01*
X154634969Y-131273868D02*
X155248798Y-131286019D01*
X154677994Y-145302294D02*
X154050614Y-145311588D01*
X154790798Y-124314019D02*
X154379359Y-124312126D01*
X155090735Y-124321866D02*
X154790798Y-124314019D01*
X155104231Y-112734716D02*
X155639283Y-112632550D01*
X155248798Y-131286019D02*
X155732834Y-131300543D01*
X155444698Y-145288496D02*
X154677994Y-145302294D01*
X155639283Y-112632550D02*
X156190845Y-112543689D01*
X155732834Y-131300543D02*
X156113114Y-131319552D01*
X155815008Y-124379600D02*
X155090735Y-124321866D01*
X156087017Y-145272836D02*
X155444698Y-145288496D01*
X156113114Y-131319552D02*
X156415674Y-131345164D01*
X156190845Y-112543689D02*
X156712602Y-112476117D01*
X156415674Y-131345164D02*
X156666549Y-131379492D01*
X156484453Y-124499469D02*
X155815008Y-124379600D01*
X156623369Y-145254104D02*
X156087017Y-145272836D01*
X156666549Y-131379492D02*
X156891775Y-131424652D01*
X156712602Y-112476117D02*
X157158235Y-112437817D01*
X156891775Y-131424652D02*
X157080147Y-131472492D01*
X157072170Y-145231089D02*
X156623369Y-145254104D01*
X157080147Y-131472492D02*
X157401520Y-131566337D01*
X157158235Y-112437817D02*
X157245092Y-112433989D01*
X157167178Y-124692316D02*
X156484453Y-124499469D01*
X157245092Y-112433989D02*
X157588788Y-112420085D01*
X157298708Y-124731420D02*
X157167178Y-124692316D01*
X157401520Y-131566337D02*
X157691127Y-131661683D01*
X157451840Y-145202580D02*
X157072170Y-145231089D01*
X157588788Y-112420085D02*
X158024349Y-112399135D01*
X157691127Y-131661683D02*
X157894164Y-131740287D01*
X157752767Y-124831089D02*
X157298708Y-124731420D01*
X157780795Y-145167367D02*
X157451840Y-145202580D01*
X157894164Y-131740287D02*
X157916939Y-131751075D01*
X157916939Y-131751075D02*
X158163542Y-131850467D01*
X158024349Y-112399135D02*
X158488149Y-112374326D01*
X158077453Y-145124238D02*
X157780795Y-145167367D01*
X158163542Y-131850467D02*
X158393541Y-131916215D01*
X158306972Y-124915181D02*
X157752767Y-124831089D01*
X158360230Y-145071983D02*
X158077453Y-145124238D01*
X158393541Y-131916215D02*
X158603769Y-131984599D01*
X158488149Y-112374326D02*
X158803374Y-112355894D01*
X158603769Y-131984599D02*
X158911933Y-132114193D01*
X158647546Y-145009391D02*
X158360230Y-145071983D01*
X158740240Y-144988047D02*
X158647546Y-145009391D01*
X158803374Y-112355894D02*
X159639482Y-112338715D01*
X158911933Y-132114193D02*
X159281794Y-132286967D01*
X158920673Y-124979933D02*
X158306972Y-124915181D01*
X159073093Y-144911582D02*
X158740240Y-144988047D01*
X159281794Y-132286967D02*
X159677111Y-132484891D01*
X159466981Y-144821278D02*
X159073093Y-144911582D01*
X159553223Y-125021582D02*
X158920673Y-124979933D01*
X159639482Y-112338715D02*
X160359059Y-112398842D01*
X159677111Y-132484891D02*
X160061643Y-132689936D01*
X159855215Y-144732430D02*
X159466981Y-144821278D01*
X159892141Y-144723968D02*
X159855215Y-144732430D01*
X160061643Y-132689936D02*
X160399149Y-132884072D01*
X160160881Y-144659141D02*
X159892141Y-144723968D01*
X160163971Y-125036365D02*
X159553223Y-125021582D01*
X160359059Y-112398842D02*
X160982226Y-112538689D01*
X160384604Y-144593390D02*
X160160881Y-144659141D01*
X160399149Y-132884072D02*
X160610712Y-133019252D01*
X160592339Y-144512338D02*
X160384604Y-144593390D01*
X160610712Y-133019252D02*
X160884142Y-133249917D01*
X160712270Y-125020518D02*
X160163971Y-125036365D01*
X160740087Y-125018703D02*
X160712270Y-125020518D01*
X160813117Y-144401610D02*
X160592339Y-144512338D01*
X160884142Y-133249917D02*
X161197620Y-133581979D01*
X160982226Y-112538689D02*
X161304976Y-112656251D01*
X161075968Y-144246832D02*
X160813117Y-144401610D01*
X161197620Y-133581979D02*
X161521428Y-133977497D01*
X161304976Y-112656251D02*
X161523967Y-112755964D01*
X161309107Y-124966775D02*
X160740087Y-125018703D01*
X161409921Y-144033629D02*
X161075968Y-144246832D01*
X161521428Y-133977497D02*
X161825845Y-134398531D01*
X161523967Y-112755964D02*
X161664048Y-112834163D01*
X161664048Y-112834163D02*
X161694556Y-112868752D01*
X161694556Y-112868752D02*
X161735801Y-112895439D01*
X161735801Y-112895439D02*
X161876216Y-112910472D01*
X161787264Y-124883784D02*
X161309107Y-124966775D01*
X161825845Y-134398531D02*
X162081154Y-134807138D01*
X161844007Y-143747626D02*
X161409921Y-144033629D01*
X161876216Y-112910472D02*
X162149789Y-112971979D01*
X161902321Y-143707437D02*
X161844007Y-143747626D01*
X162081154Y-134807138D02*
X162216510Y-135069326D01*
X162149789Y-112971979D02*
X162491795Y-113125619D01*
X162215307Y-124754459D02*
X161787264Y-124883784D01*
X162216510Y-135069326D02*
X162540878Y-135803969D01*
X162285089Y-143372595D02*
X161902321Y-143707437D01*
X162491795Y-113125619D02*
X162873880Y-113349764D01*
X162540878Y-135803969D02*
X162794005Y-136442871D01*
X162633984Y-124563523D02*
X162215307Y-124754459D01*
X162637608Y-142947833D02*
X162285089Y-143372595D01*
X162773918Y-142747811D02*
X162637608Y-142947833D01*
X162794005Y-136442871D02*
X162985302Y-137023620D01*
X162873880Y-113349764D02*
X163267689Y-113622784D01*
X162906819Y-142517567D02*
X162773918Y-142747811D01*
X162985302Y-137023620D02*
X163124181Y-137583807D01*
X163006828Y-142277362D02*
X162906819Y-142517567D01*
X163084041Y-124295705D02*
X162633984Y-124563523D01*
X163093062Y-141979216D02*
X163006828Y-142277362D01*
X163124181Y-137583807D02*
X163220053Y-138161023D01*
X163184644Y-141575154D02*
X163093062Y-141979216D01*
X163220053Y-138161023D02*
X163282330Y-138792857D01*
X163251535Y-141245695D02*
X163184644Y-141575154D01*
X163267689Y-113622784D02*
X163644866Y-113923053D01*
X163282330Y-138792857D02*
X163318699Y-139471473D01*
X163300481Y-140947932D02*
X163251535Y-141245695D01*
X163318699Y-139471473D02*
X163335384Y-139968057D01*
X163328973Y-140663957D02*
X163300481Y-140947932D01*
X163335384Y-139968057D02*
X163339708Y-140351442D01*
X163339708Y-140351442D02*
X163328973Y-140663957D01*
X163606226Y-123935728D02*
X163084041Y-124295705D01*
X163644866Y-113923053D02*
X163977056Y-114228940D01*
X163666240Y-123889621D02*
X163606226Y-123935728D01*
X163959036Y-123571200D02*
X163666240Y-123889621D01*
X163977056Y-114228940D02*
X164235904Y-114518819D01*
X164230757Y-123110698D02*
X163959036Y-123571200D01*
X164235904Y-114518819D02*
X164393056Y-114771060D01*
X164393056Y-114771060D02*
X164419771Y-114850614D01*
X164419771Y-114850614D02*
X164476612Y-115042603D01*
X164476612Y-115042603D02*
X164532650Y-115162270D01*
X164483621Y-122503755D02*
X164230757Y-123110698D01*
X164532650Y-115162270D02*
X164625153Y-115347515D01*
X164625153Y-115347515D02*
X164727969Y-115658861D01*
X164719845Y-121746013D02*
X164483621Y-122503755D01*
X164727969Y-115658861D02*
X164834873Y-116067463D01*
X164769385Y-121566166D02*
X164719845Y-121746013D01*
X164834873Y-116067463D02*
X164939642Y-116544474D01*
X164863491Y-121229560D02*
X164769385Y-121566166D01*
X164939642Y-116544474D02*
X165036051Y-117061047D01*
X164943606Y-120949167D02*
X164863491Y-121229560D01*
X164996359Y-120772086D02*
X164943606Y-120949167D01*
X165036051Y-117061047D02*
X165117876Y-117588335D01*
X165039774Y-120586686D02*
X164996359Y-120772086D01*
X165090994Y-120247749D02*
X165039774Y-120586686D01*
X165117876Y-117588335D02*
X165178894Y-118097493D01*
X165135890Y-119829119D02*
X165090994Y-120247749D01*
X165171291Y-119373087D02*
X165135890Y-119829119D01*
X165178894Y-118097493D02*
X165188842Y-118203476D01*
X165188842Y-118203476D02*
X165200936Y-118517975D01*
X165194030Y-118921942D02*
X165171291Y-119373087D01*
X165200936Y-118517975D02*
X165194030Y-118921942D01*
%TD*%
M02*
