%TF.GenerationSoftware,KiCad,Pcbnew,8.0.1*%
%TF.CreationDate,2024-11-08T11:16:20-04:00*%
%TF.ProjectId,Drops MkII Blobby,44726f70-7320-44d6-9b49-4920426c6f62,rev?*%
%TF.SameCoordinates,Original*%
%TF.FileFunction,Other,User*%
%FSLAX46Y46*%
G04 Gerber Fmt 4.6, Leading zero omitted, Abs format (unit mm)*
G04 Created by KiCad (PCBNEW 8.0.1) date 2024-11-08 11:16:20*
%MOMM*%
%LPD*%
G01*
G04 APERTURE LIST*
%ADD10C,0.050000*%
G04 APERTURE END LIST*
D10*
%TO.C,Q1*%
X140730000Y-101000000D02*
X140730000Y-107650000D01*
X140730000Y-107650000D02*
X147380000Y-107650000D01*
X147380000Y-101000000D02*
X140730000Y-101000000D01*
X147380000Y-107650000D02*
X147380000Y-101000000D01*
%TO.C,RV1*%
X126970000Y-100210000D02*
X126970000Y-107790000D01*
X126970000Y-100210000D02*
X134030000Y-100210000D01*
X134030000Y-107790000D02*
X126970000Y-107790000D01*
X134030000Y-107790000D02*
X134030000Y-100210000D01*
%TO.C,Inductor*%
X143380552Y-91430552D02*
X143380552Y-93530552D01*
X143380552Y-93530552D02*
X147980552Y-93530552D01*
X147980552Y-91430552D02*
X143380552Y-91430552D01*
X147980552Y-93530552D02*
X147980552Y-91430552D01*
%TO.C,C2*%
X143380552Y-94580552D02*
X143380552Y-96680552D01*
X143380552Y-96680552D02*
X147980552Y-96680552D01*
X147980552Y-94580552D02*
X143380552Y-94580552D01*
X147980552Y-96680552D02*
X147980552Y-94580552D01*
%TO.C,R1*%
X137045000Y-93450000D02*
X137045000Y-95550000D01*
X137045000Y-95550000D02*
X140955000Y-95550000D01*
X140955000Y-93450000D02*
X137045000Y-93450000D01*
X140955000Y-95550000D02*
X140955000Y-93450000D01*
%TO.C,REF\u002A\u002A*%
X125470000Y-88950000D02*
X125470000Y-96530000D01*
X125470000Y-88950000D02*
X132530000Y-88950000D01*
X132530000Y-96530000D02*
X125470000Y-96530000D01*
X132530000Y-96530000D02*
X132530000Y-88950000D01*
X122450000Y-128545000D02*
X122450000Y-132455000D01*
X122450000Y-132455000D02*
X124550000Y-132455000D01*
X124550000Y-128545000D02*
X122450000Y-128545000D01*
X124550000Y-132455000D02*
X124550000Y-128545000D01*
X122150000Y-134000000D02*
X122150000Y-139000000D01*
X122150000Y-139000000D02*
X132850000Y-139000000D01*
X132850000Y-134000000D02*
X122150000Y-134000000D01*
X132850000Y-139000000D02*
X132850000Y-134000000D01*
%TD*%
M02*
