%TF.GenerationSoftware,KiCad,Pcbnew,8.0.1*%
%TF.CreationDate,2024-11-08T11:16:20-04:00*%
%TF.ProjectId,Drops MkII Blobby,44726f70-7320-44d6-9b49-4920426c6f62,rev?*%
%TF.SameCoordinates,Original*%
%TF.FileFunction,Copper,L1,Top*%
%TF.FilePolarity,Positive*%
%FSLAX46Y46*%
G04 Gerber Fmt 4.6, Leading zero omitted, Abs format (unit mm)*
G04 Created by KiCad (PCBNEW 8.0.1) date 2024-11-08 11:16:20*
%MOMM*%
%LPD*%
G01*
G04 APERTURE LIST*
%TA.AperFunction,ComponentPad*%
%ADD10O,1.600000X1.200000*%
%TD*%
%TA.AperFunction,ComponentPad*%
%ADD11O,1.200000X1.200000*%
%TD*%
%TA.AperFunction,ComponentPad*%
%ADD12R,1.560000X1.560000*%
%TD*%
%TA.AperFunction,ComponentPad*%
%ADD13C,1.560000*%
%TD*%
%TA.AperFunction,ComponentPad*%
%ADD14R,1.600000X1.600000*%
%TD*%
%TA.AperFunction,ComponentPad*%
%ADD15C,1.600000*%
%TD*%
%TA.AperFunction,ComponentPad*%
%ADD16R,10.000000X2.400000*%
%TD*%
%TA.AperFunction,ComponentPad*%
%ADD17O,10.000000X2.400000*%
%TD*%
%TA.AperFunction,ComponentPad*%
%ADD18C,1.400000*%
%TD*%
%TA.AperFunction,ComponentPad*%
%ADD19O,1.400000X1.400000*%
%TD*%
%TA.AperFunction,ComponentPad*%
%ADD20R,1.800000X1.800000*%
%TD*%
%TA.AperFunction,ComponentPad*%
%ADD21C,1.800000*%
%TD*%
%TA.AperFunction,Conductor*%
%ADD22C,0.200000*%
%TD*%
G04 APERTURE END LIST*
D10*
%TO.P,Q1,1,E*%
%TO.N,GND*%
X142960000Y-104500000D03*
D11*
%TO.P,Q1,2,B*%
%TO.N,Net-(D1-K)*%
X144230000Y-105770000D03*
%TO.P,Q1,3,C*%
%TO.N,Net-(D1-A)*%
X145500000Y-104500000D03*
%TD*%
D12*
%TO.P,RV1,1,1*%
%TO.N,Net-(C2-Pad1)*%
X128000000Y-101760000D03*
D13*
%TO.P,RV1,2,2*%
%TO.N,/OUT*%
X130500000Y-106760000D03*
%TO.P,RV1,3,3*%
%TO.N,GND*%
X133000000Y-101760000D03*
%TD*%
D14*
%TO.P,,1,1*%
%TO.N,Net-(C2-Pad1)*%
X129000000Y-128500000D03*
%TD*%
D15*
%TO.P,Inductor,1*%
%TO.N,/IN*%
X144430552Y-92480552D03*
%TO.P,Inductor,2*%
%TO.N,Net-(D1-K)*%
X146930552Y-92480552D03*
%TD*%
D14*
%TO.P,,1,1*%
%TO.N,Net-(C2-Pad1)*%
X159500000Y-116000000D03*
%TD*%
D16*
%TO.P,,1*%
%TO.N,N/C*%
X156500000Y-139500000D03*
%TD*%
D13*
%TO.P,,2,2*%
%TO.N,/OUT*%
X129000000Y-115500000D03*
%TD*%
D14*
%TO.P,,1,1*%
%TO.N,Net-(C2-Pad1)*%
X159500000Y-119500000D03*
%TD*%
D15*
%TO.P,C2,1*%
%TO.N,Net-(C2-Pad1)*%
X144430552Y-95630552D03*
%TO.P,C2,2*%
%TO.N,Net-(D1-A)*%
X146930552Y-95630552D03*
%TD*%
D17*
%TO.P,,2*%
%TO.N,N/C*%
X124500000Y-87000000D03*
%TD*%
D18*
%TO.P,R1,1*%
%TO.N,Net-(D1-A)*%
X139905000Y-94500000D03*
D19*
%TO.P,R1,2*%
%TO.N,+9V*%
X138005000Y-94500000D03*
%TD*%
D14*
%TO.P,,1,1*%
%TO.N,Net-(C2-Pad1)*%
X148000000Y-116000000D03*
%TD*%
%TO.P,,1,1*%
%TO.N,Net-(C2-Pad1)*%
X159500000Y-116000000D03*
%TD*%
D12*
%TO.P,REF\u002A\u002A,1*%
%TO.N,N/C*%
X126500000Y-90500000D03*
D13*
%TO.P,REF\u002A\u002A,2*%
X129000000Y-95500000D03*
%TO.P,REF\u002A\u002A,3*%
X131500000Y-90500000D03*
%TD*%
D14*
%TO.P,,1,1*%
%TO.N,Net-(C2-Pad1)*%
X159500000Y-119500000D03*
%TD*%
%TO.P,,1,1*%
%TO.N,Net-(C2-Pad1)*%
X148000000Y-118500000D03*
%TD*%
%TO.P,,1,1*%
%TO.N,Net-(C2-Pad1)*%
X129000000Y-118500000D03*
%TD*%
%TO.P,,1,1*%
%TO.N,Net-(C2-Pad1)*%
X129000000Y-131000000D03*
%TD*%
D18*
%TO.P,REF\u002A\u002A,1*%
%TO.N,N/C*%
X123500000Y-129595000D03*
D19*
%TO.P,REF\u002A\u002A,2*%
X123500000Y-131495000D03*
%TD*%
D20*
%TO.P,REF\u002A\u002A,1*%
%TO.N,N/C*%
X123400000Y-137750000D03*
D21*
%TO.P,REF\u002A\u002A,2*%
X123400000Y-135210000D03*
%TD*%
D22*
%TO.N,*%
X126500000Y-90500000D02*
X126500000Y-89000000D01*
X126500000Y-89000000D02*
X124500000Y-87000000D01*
X124500000Y-128595000D02*
X123500000Y-129595000D01*
X124500000Y-87000000D02*
X124500000Y-128595000D01*
X147000000Y-95500000D02*
X147000000Y-92500000D01*
%TO.N,Net-(D1-K)*%
X144230000Y-105770000D02*
X145730000Y-105770000D01*
X148030552Y-103469448D02*
X148030552Y-93580552D01*
X145730000Y-105770000D02*
X148030552Y-103469448D01*
X148030552Y-93580552D02*
X146930552Y-92480552D01*
%TO.N,Net-(D1-A)*%
X142000000Y-94530552D02*
X141630552Y-94530552D01*
X144886187Y-94530552D02*
X142000000Y-94530552D01*
X146930552Y-95630552D02*
X145830552Y-94530552D01*
X139905000Y-94500000D02*
X141969448Y-94500000D01*
X141969448Y-94500000D02*
X142000000Y-94530552D01*
X145500000Y-104500000D02*
X146930552Y-103069448D01*
X146930552Y-103069448D02*
X146930552Y-95630552D01*
X145830552Y-94530552D02*
X141630552Y-94530552D01*
%TO.N,Net-(C2-Pad1)*%
X148500000Y-122000000D02*
X145500000Y-119000000D01*
X126000000Y-98000000D02*
X129000000Y-95500000D01*
X129729448Y-100030552D02*
X140030552Y-100030552D01*
X131500000Y-128500000D02*
X131500000Y-133000000D01*
X161000000Y-122000000D02*
X148500000Y-122000000D01*
X147065686Y-117000000D02*
X148000000Y-116065686D01*
X159500000Y-116000000D02*
X162000000Y-116000000D01*
X148434314Y-119500000D02*
X148000000Y-119065686D01*
X129000000Y-128500000D02*
X131500000Y-128500000D01*
X156500000Y-139500000D02*
X156500000Y-139588524D01*
X159500000Y-119500000D02*
X149000000Y-119500000D01*
X145500000Y-117000000D02*
X147065686Y-117000000D01*
X148000000Y-119065686D02*
X148000000Y-118900000D01*
X162000000Y-116000000D02*
X162000000Y-121000000D01*
X162000000Y-121000000D02*
X161000000Y-122000000D01*
X148000000Y-116065686D02*
X148000000Y-116000000D01*
X144430552Y-95630552D02*
X140030552Y-100030552D01*
X125650000Y-140000000D02*
X123400000Y-137750000D01*
X156500000Y-139500000D02*
X156500000Y-133000000D01*
X156500000Y-139588524D02*
X156088524Y-140000000D01*
X129000000Y-131000000D02*
X126000000Y-131000000D01*
X156500000Y-133000000D02*
X131500000Y-133000000D01*
X149000000Y-119500000D02*
X148282843Y-118782843D01*
X126000000Y-131000000D02*
X126000000Y-98000000D01*
X128000000Y-101760000D02*
X129729448Y-100030552D01*
X145500000Y-119000000D02*
X145500000Y-117000000D01*
X156088524Y-140000000D02*
X125650000Y-140000000D01*
%TO.N,GND*%
X134109448Y-113390552D02*
X135390552Y-113390552D01*
X135131104Y-101760000D02*
X137871104Y-104500000D01*
X135435552Y-106935552D02*
X135371104Y-107000000D01*
X135500000Y-113500000D02*
X135390552Y-113390552D01*
X137871104Y-104500000D02*
X135435552Y-106935552D01*
X135435552Y-106935552D02*
X135390552Y-106980552D01*
X135390552Y-106980552D02*
X135390552Y-113390552D01*
X135500000Y-113500000D02*
X145000000Y-113500000D01*
X129000000Y-118500000D02*
X134109448Y-113390552D01*
X145000000Y-113500000D02*
X147500000Y-116000000D01*
X133000000Y-101760000D02*
X135131104Y-101760000D01*
X142960000Y-104500000D02*
X137871104Y-104500000D01*
%TO.N,/IN*%
X148500000Y-118000000D02*
X148000000Y-118500000D01*
X144430552Y-92480552D02*
X145530552Y-91380552D01*
X149500000Y-92500000D02*
X149500000Y-118000000D01*
X148380552Y-91380552D02*
X149500000Y-92500000D01*
X145530552Y-91380552D02*
X148380552Y-91380552D01*
X149500000Y-118000000D02*
X148500000Y-118000000D01*
%TO.N,/OUT*%
X123500000Y-135110000D02*
X123400000Y-135210000D01*
X127900000Y-129800000D02*
X130000000Y-129800000D01*
X130500000Y-130300000D02*
X130500000Y-132000000D01*
X130500000Y-132000000D02*
X129000000Y-133500000D01*
X130500000Y-106760000D02*
X130500000Y-114000000D01*
X123500000Y-131495000D02*
X123500000Y-135110000D01*
X123500000Y-135000000D02*
X129000000Y-133500000D01*
X130000000Y-129800000D02*
X130500000Y-130300000D01*
X130500000Y-114000000D02*
X129000000Y-115500000D01*
X129000000Y-115500000D02*
X127900000Y-116600000D01*
X127900000Y-116600000D02*
X127900000Y-129800000D01*
%TD*%
M02*
