M48
; DRILL file {KiCad 8.0.1} date 2024-11-08T11:16:04-0400
; FORMAT={-:-/ absolute / inch / decimal}
; #@! TF.CreationDate,2024-11-08T11:16:04-04:00
; #@! TF.GenerationSoftware,Kicad,Pcbnew,8.0.1
; #@! TF.FileFunction,Plated,1,2,PTH
FMAT,2
INCH
; #@! TA.AperFunction,Plated,PTH,ComponentDrill
T1C0.0276
; #@! TA.AperFunction,Plated,PTH,ComponentDrill
T2C0.0315
; #@! TA.AperFunction,Plated,PTH,ComponentDrill
T3C0.0354
; #@! TA.AperFunction,Plated,PTH,ComponentDrill
T4C0.0394
; #@! TA.AperFunction,Plated,PTH,ComponentDrill
T5C0.0630
%
G90
G05
T1
X4.8622Y-5.1022
X4.8622Y-5.177
X5.4333Y-3.7205
X5.5081Y-3.7205
X5.6283Y-4.1142
X5.6783Y-4.1642
X5.7283Y-4.1142
T2
X5.0787Y-4.6654
X5.0787Y-5.0591
X5.0787Y-5.1575
X5.6862Y-3.641
X5.6862Y-3.765
X5.7847Y-3.641
X5.7847Y-3.765
X5.8268Y-4.5669
X5.8268Y-4.6654
X6.2795Y-4.5669
X6.2795Y-4.5669
X6.2795Y-4.7047
X6.2795Y-4.7047
T3
X4.8583Y-5.3232
X4.8583Y-5.4232
T4
X4.9803Y-3.563
X5.0394Y-4.0063
X5.0787Y-3.7598
X5.0787Y-4.5472
X5.1378Y-4.2031
X5.1772Y-3.563
X5.2362Y-4.0063
T5
G00X4.7756Y-3.4252
M15
G01X5.0276Y-3.4252
M16
G05
G00X6.0354Y-5.4921
M15
G01X6.2874Y-5.4921
M16
G05
M30
