M48
; DRILL file {KiCad 8.0.1} date 2025-09-14T21:00:17-0300
; FORMAT={-:-/ absolute / inch / decimal}
; #@! TF.CreationDate,2025-09-14T21:00:17-03:00
; #@! TF.GenerationSoftware,Kicad,Pcbnew,8.0.1
; #@! TF.FileFunction,Plated,1,2,PTH
FMAT,2
INCH
; #@! TA.AperFunction,Plated,PTH,ViaDrill
T1C0.0118
; #@! TA.AperFunction,Plated,PTH,ComponentDrill
T2C0.0217
; #@! TA.AperFunction,Plated,PTH,ComponentDrill
T3C0.0276
; #@! TA.AperFunction,Plated,PTH,ComponentDrill
T4C0.0310
; #@! TA.AperFunction,Plated,PTH,ComponentDrill
T5C0.0315
; #@! TA.AperFunction,Plated,PTH,ComponentDrill
T6C0.0354
; #@! TA.AperFunction,Plated,PTH,ComponentDrill
T7C0.0394
; #@! TA.AperFunction,Plated,PTH,ComponentDrill
T8C0.0433
; #@! TA.AperFunction,Plated,PTH,ComponentDrill
T9C0.0472
%
G90
G05
T1
X4.7561Y-2.5299
X5.0818Y-3.4569
X5.2663Y-4.336
X5.3392Y-3.5676
X5.3464Y-4.1081
X5.7199Y-3.9375
X5.8098Y-3.6001
X5.8251Y-3.8775
X6.3742Y-3.8852
X6.5559Y-3.8009
X6.5614Y-3.7437
X6.5802Y-3.4613
X6.6038Y-3.4351
X6.6219Y-3.8046
X6.7356Y-4.6128
T2
X4.5817Y-3.7691
X4.5817Y-3.9187
X5.1723Y-3.7439
X5.1723Y-3.9439
T3
X5.3325Y-3.6797
X5.3325Y-3.8037
X5.3325Y-3.9277
X5.3325Y-4.0517
X5.3325Y-4.1758
X5.3325Y-4.2998
X5.3325Y-4.4238
X5.3325Y-4.5478
X5.3325Y-4.6718
X5.5325Y-3.6797
X5.5325Y-3.8037
X5.5325Y-3.9277
X5.5325Y-4.0517
X5.5325Y-4.1758
X5.5325Y-4.2998
X5.5325Y-4.4238
X5.5325Y-4.5478
X5.5325Y-4.6718
X6.5097Y-3.0852
X6.5097Y-3.221
X6.5097Y-3.3569
X6.5097Y-3.4927
X6.6593Y-3.0852
X6.6593Y-3.221
X6.6593Y-3.3569
T4
X5.6488Y-3.7379
X5.6488Y-3.8379
X5.6488Y-3.9379
X5.6488Y-4.0379
X5.6488Y-4.1379
X5.6488Y-4.2379
X5.6488Y-4.3379
X5.9488Y-3.7379
X5.9488Y-3.8379
X5.9488Y-3.9379
X5.9488Y-4.0379
X5.9488Y-4.1379
X5.9488Y-4.2379
X5.9488Y-4.3379
T5
X6.0687Y-3.6895
X6.0687Y-3.8332
X6.0687Y-3.9769
X6.0687Y-4.1206
X6.0687Y-4.2643
X6.1671Y-3.6895
X6.1671Y-3.8332
X6.1671Y-3.9769
X6.1671Y-4.1206
X6.1671Y-4.2643
X6.2912Y-3.6895
X6.2912Y-3.8332
X6.2912Y-3.9769
X6.2912Y-4.1206
X6.2912Y-4.2643
X6.3896Y-3.6895
X6.3896Y-3.8332
X6.3896Y-3.9769
X6.3896Y-4.1206
X6.3896Y-4.2643
T6
X5.4264Y-2.4555
X5.5839Y-2.4555
X5.7414Y-2.4555
X6.042Y-2.4555
X6.1994Y-2.4555
X6.3569Y-2.4555
T7
X4.6671Y-4.336
X4.9231Y-4.336
X5.1671Y-2.4325
X5.1671Y-2.5309
X5.1671Y-2.6293
X5.1671Y-2.8675
X5.1671Y-2.9659
X5.1671Y-3.0643
X5.1671Y-3.3025
X5.1671Y-3.401
X5.1671Y-3.4994
X6.0923Y-3.2191
X6.0923Y-3.3175
X6.0923Y-3.4159
X6.1908Y-3.2191
X6.1908Y-3.3175
X6.1908Y-3.4159
T9
X5.3477Y-2.3866
X5.3477Y-2.6228
X5.8201Y-2.3866
X5.8201Y-2.6228
X5.9632Y-2.3866
X5.9632Y-2.6228
X6.4357Y-2.3866
X6.4357Y-2.6228
T8
G00X6.3207Y-3.1443
M15
G01X6.3207Y-3.1167
M16
G05
G00X6.3207Y-3.5183
M15
G01X6.3207Y-3.4907
M16
G05
M30
