%TF.GenerationSoftware,KiCad,Pcbnew,8.0.1*%
%TF.CreationDate,2025-09-14T20:59:35-03:00*%
%TF.ProjectId,Touch Synth 2,546f7563-6820-4537-996e-746820322e6b,rev?*%
%TF.SameCoordinates,Original*%
%TF.FileFunction,Copper,L1,Top*%
%TF.FilePolarity,Positive*%
%FSLAX46Y46*%
G04 Gerber Fmt 4.6, Leading zero omitted, Abs format (unit mm)*
G04 Created by KiCad (PCBNEW 8.0.1) date 2025-09-14 20:59:35*
%MOMM*%
%LPD*%
G01*
G04 APERTURE LIST*
G04 Aperture macros list*
%AMRoundRect*
0 Rectangle with rounded corners*
0 $1 Rounding radius*
0 $2 $3 $4 $5 $6 $7 $8 $9 X,Y pos of 4 corners*
0 Add a 4 corners polygon primitive as box body*
4,1,4,$2,$3,$4,$5,$6,$7,$8,$9,$2,$3,0*
0 Add four circle primitives for the rounded corners*
1,1,$1+$1,$2,$3*
1,1,$1+$1,$4,$5*
1,1,$1+$1,$6,$7*
1,1,$1+$1,$8,$9*
0 Add four rect primitives between the rounded corners*
20,1,$1+$1,$2,$3,$4,$5,0*
20,1,$1+$1,$4,$5,$6,$7,0*
20,1,$1+$1,$6,$7,$8,$9,0*
20,1,$1+$1,$8,$9,$2,$3,0*%
G04 Aperture macros list end*
%TA.AperFunction,ComponentPad*%
%ADD10C,1.600000*%
%TD*%
%TA.AperFunction,ComponentPad*%
%ADD11C,1.400000*%
%TD*%
%TA.AperFunction,ComponentPad*%
%ADD12O,1.400000X1.400000*%
%TD*%
%TA.AperFunction,ComponentPad*%
%ADD13C,2.000000*%
%TD*%
%TA.AperFunction,ComponentPad*%
%ADD14C,1.700000*%
%TD*%
%TA.AperFunction,SMDPad,CuDef*%
%ADD15R,1.422400X0.508000*%
%TD*%
%TA.AperFunction,ComponentPad*%
%ADD16R,1.800000X1.800000*%
%TD*%
%TA.AperFunction,ComponentPad*%
%ADD17C,1.800000*%
%TD*%
%TA.AperFunction,ComponentPad*%
%ADD18RoundRect,0.500000X0.500000X1.000000X-0.500000X1.000000X-0.500000X-1.000000X0.500000X-1.000000X0*%
%TD*%
%TA.AperFunction,ComponentPad*%
%ADD19R,1.295400X1.295400*%
%TD*%
%TA.AperFunction,ComponentPad*%
%ADD20C,1.295400*%
%TD*%
%TA.AperFunction,ComponentPad*%
%ADD21RoundRect,0.287500X-0.287500X-0.287500X0.287500X-0.287500X0.287500X0.287500X-0.287500X0.287500X0*%
%TD*%
%TA.AperFunction,ComponentPad*%
%ADD22C,1.150000*%
%TD*%
%TA.AperFunction,ComponentPad*%
%ADD23R,1.600000X1.600000*%
%TD*%
%TA.AperFunction,ViaPad*%
%ADD24C,0.600000*%
%TD*%
%TA.AperFunction,Conductor*%
%ADD25C,0.200000*%
%TD*%
G04 APERTURE END LIST*
D10*
%TO.P,C4,1*%
%TO.N,Net-(C4-Pad1)*%
X154145600Y-104664400D03*
%TO.P,C4,2*%
%TO.N,GNDREF*%
X156645600Y-104664400D03*
%TD*%
D11*
%TO.P,R5,1*%
%TO.N,Net-(C7-Pad2)*%
X135445600Y-106064400D03*
D12*
%TO.P,R5,2*%
%TO.N,GNDREF*%
X140525600Y-106064400D03*
%TD*%
D10*
%TO.P,C7,1*%
%TO.N,Net-(U1-1OUT)*%
X159795600Y-97364400D03*
%TO.P,C7,2*%
%TO.N,Net-(C7-Pad2)*%
X162295600Y-97364400D03*
%TD*%
%TO.P,C2,1*%
%TO.N,Net-(C2-Pad1)*%
X154145600Y-97364400D03*
%TO.P,C2,2*%
%TO.N,Net-(C2-Pad2)*%
X156645600Y-97364400D03*
%TD*%
%TO.P,C9,1*%
%TO.N,Net-(C9-Pad1)*%
X159795600Y-104664400D03*
%TO.P,C9,2*%
%TO.N,Net-(C9-Pad2)*%
X162295600Y-104664400D03*
%TD*%
%TO.P,C5,1*%
%TO.N,Net-(C2-Pad2)*%
X154145600Y-108314400D03*
%TO.P,C5,2*%
%TO.N,Net-(C5-Pad2)*%
X156645600Y-108314400D03*
%TD*%
D13*
%TO.P,SW2,*%
%TO.N,*%
X151465600Y-60619400D03*
X151465600Y-66619400D03*
X163465600Y-60619400D03*
X163465600Y-66619400D03*
D14*
%TO.P,SW2,1,A*%
%TO.N,Net-(SW2-A)*%
X153465600Y-62369400D03*
%TO.P,SW2,2,B*%
%TO.N,GNDREF*%
X157465600Y-62369400D03*
%TO.P,SW2,3,C*%
%TO.N,unconnected-(SW2-C-Pad3)*%
X161465600Y-62369400D03*
%TD*%
D15*
%TO.P,U3,14,14*%
%TO.N,Net-(TP3-Pad1)*%
X171000000Y-93380000D03*
%TO.P,U3,13,13*%
%TO.N,unconnected-(U3-Pad13)*%
X171000000Y-94650000D03*
%TO.P,U3,12,12*%
%TO.N,unconnected-(U3-Pad12)*%
X171000000Y-95920000D03*
%TO.P,U3,11,11*%
%TO.N,unconnected-(U3-Pad11)*%
X171000000Y-97190000D03*
%TO.P,U3,10,10*%
%TO.N,unconnected-(U3-Pad10)*%
X171000000Y-98460000D03*
%TO.P,U3,9,9*%
%TO.N,Net-(C10-Pad1)*%
X171000000Y-99730000D03*
%TO.P,U3,8,8*%
%TO.N,Net-(R9-Pad1)*%
X171000000Y-101000000D03*
%TO.P,U3,7,7*%
%TO.N,Net-(SW2-A)*%
X165412000Y-101000000D03*
%TO.P,U3,6,6*%
%TO.N,Net-(C10-Pad2)*%
X165412000Y-99730000D03*
%TO.P,U3,5,5*%
%TO.N,Net-(C10-Pad1)*%
X165412000Y-98460000D03*
%TO.P,U3,4,4*%
%TO.N,Net-(C9-Pad2)*%
X165412000Y-97190000D03*
%TO.P,U3,3,3*%
%TO.N,Net-(C9-Pad1)*%
X165412000Y-95920000D03*
%TO.P,U3,2,2*%
%TO.N,Net-(R6-Pad2)*%
X165412000Y-94650000D03*
%TO.P,U3,1,1*%
%TO.N,Net-(C8-Pad2)*%
X165412000Y-93380000D03*
%TD*%
D11*
%TO.P,R3,1*%
%TO.N,Net-(U1-1THRES)*%
X135445600Y-99764400D03*
D12*
%TO.P,R3,2*%
%TO.N,Net-(C4-Pad1)*%
X140525600Y-99764400D03*
%TD*%
D11*
%TO.P,TP7,1,1*%
%TO.N,Net-(C5-Pad2)*%
X169145600Y-85264400D03*
%TD*%
D10*
%TO.P,C3,1*%
%TO.N,Net-(C2-Pad2)*%
X154145600Y-101014400D03*
%TO.P,C3,2*%
%TO.N,Net-(U1-1THRES)*%
X156645600Y-101014400D03*
%TD*%
D16*
%TO.P,RV4,1,1*%
%TO.N,Net-(R9-Pad1)*%
X131245600Y-83884400D03*
D17*
%TO.P,RV4,2,2*%
%TO.N,Net-(C10-Pad1)*%
X131245600Y-86384400D03*
%TO.P,RV4,3,3*%
%TO.N,unconnected-(RV4-Pad3)*%
X131245600Y-88884400D03*
%TD*%
D11*
%TO.P,TP4,1,1*%
%TO.N,Net-(U1-1OUT)*%
X165345600Y-88714400D03*
%TD*%
D10*
%TO.P,C8,1*%
%TO.N,Net-(C8-Pad1)*%
X159795600Y-101014400D03*
%TO.P,C8,2*%
%TO.N,Net-(C8-Pad2)*%
X162295600Y-101014400D03*
%TD*%
D16*
%TO.P,RV3,1,1*%
%TO.N,unconnected-(RV3-Pad1)*%
X154745600Y-81764400D03*
D17*
%TO.P,RV3,2,2*%
%TO.N,Net-(R6-Pad2)*%
X154745600Y-84264400D03*
%TO.P,RV3,3,3*%
%TO.N,Net-(C9-Pad1)*%
X154745600Y-86764400D03*
%TO.P,RV3,4,4*%
%TO.N,unconnected-(RV3-Pad4)*%
X157245600Y-81764400D03*
%TO.P,RV3,5,5*%
%TO.N,Net-(C9-Pad2)*%
X157245600Y-84264400D03*
%TO.P,RV3,6,6*%
%TO.N,Net-(C10-Pad1)*%
X157245600Y-86764400D03*
D18*
%TO.P,RV3,MP*%
%TO.N,N/C*%
X160545600Y-79514400D03*
X160545600Y-89014400D03*
%TD*%
D11*
%TO.P,R1,1*%
%TO.N,+5V*%
X135445600Y-93464400D03*
D12*
%TO.P,R1,2*%
%TO.N,Net-(U1-2DISCH)*%
X140525600Y-93464400D03*
%TD*%
D19*
%TO.P,U1,1,1DISCH*%
%TO.N,unconnected-(U1-1DISCH-Pad1)*%
X143478500Y-94942100D03*
D20*
%TO.P,U1,2,1THRES*%
%TO.N,Net-(U1-1THRES)*%
X143478500Y-97482100D03*
%TO.P,U1,3,1CONT*%
%TO.N,unconnected-(U1-1CONT-Pad3)*%
X143478500Y-100022100D03*
%TO.P,U1,4,1RESET*%
%TO.N,+5V*%
X143478500Y-102562100D03*
%TO.P,U1,5,1OUT*%
%TO.N,Net-(U1-1OUT)*%
X143478500Y-105102100D03*
%TO.P,U1,6,1TRIG*%
%TO.N,Net-(U1-1THRES)*%
X143478500Y-107642100D03*
%TO.P,U1,7,GND*%
%TO.N,GNDREF*%
X143478500Y-110182100D03*
%TO.P,U1,8,2TRIG*%
%TO.N,Net-(U1-2THRES)*%
X151098500Y-110182100D03*
%TO.P,U1,9,2OUT*%
%TO.N,Net-(U1-2OUT)*%
X151098500Y-107642100D03*
%TO.P,U1,10,2RESET*%
%TO.N,+5V*%
X151098500Y-105102100D03*
%TO.P,U1,11,2CONT*%
%TO.N,unconnected-(U1-2CONT-Pad11)*%
X151098500Y-102562100D03*
%TO.P,U1,12,2THRES*%
%TO.N,Net-(U1-2THRES)*%
X151098500Y-100022100D03*
%TO.P,U1,13,2DISCH*%
%TO.N,Net-(U1-2DISCH)*%
X151098500Y-97482100D03*
%TO.P,U1,14,VCC*%
%TO.N,+5V*%
X151098500Y-94942100D03*
%TD*%
D16*
%TO.P,RV1,1,1*%
%TO.N,unconnected-(RV1-Pad1)*%
X131245600Y-61784400D03*
D17*
%TO.P,RV1,2,2*%
%TO.N,Net-(U1-2DISCH)*%
X131245600Y-64284400D03*
%TO.P,RV1,3,3*%
%TO.N,Net-(U1-2THRES)*%
X131245600Y-66784400D03*
%TD*%
D11*
%TO.P,R4,1*%
%TO.N,Net-(C4-Pad1)*%
X135445600Y-102914400D03*
D12*
%TO.P,R4,2*%
%TO.N,Net-(U1-1OUT)*%
X140525600Y-102914400D03*
%TD*%
D11*
%TO.P,TP2,1,1*%
%TO.N,GNDREF*%
X165345600Y-81814400D03*
%TD*%
%TO.P,R6,1*%
%TO.N,Net-(C8-Pad2)*%
X135445600Y-109214400D03*
D12*
%TO.P,R6,2*%
%TO.N,Net-(R6-Pad2)*%
X140525600Y-109214400D03*
%TD*%
D21*
%TO.P,U2,1,-*%
%TO.N,Net-(SW1-A)*%
X116375600Y-95734400D03*
D22*
%TO.P,U2,2,+*%
%TO.N,Net-(U1-2OUT)*%
X116375600Y-99534400D03*
%TO.P,U2,3*%
%TO.N,GNDREF*%
X131375600Y-95094400D03*
%TO.P,U2,4*%
%TO.N,Net-(C5-Pad2)*%
X131375600Y-100174400D03*
%TD*%
D10*
%TO.P,C1,1*%
%TO.N,GNDREF*%
X154145600Y-93714400D03*
%TO.P,C1,2*%
%TO.N,Net-(U1-2THRES)*%
X156645600Y-93714400D03*
%TD*%
%TO.P,C10,1*%
%TO.N,Net-(C10-Pad1)*%
X159795600Y-108314400D03*
%TO.P,C10,2*%
%TO.N,Net-(C10-Pad2)*%
X162295600Y-108314400D03*
%TD*%
D13*
%TO.P,SW1,*%
%TO.N,*%
X135830600Y-60619400D03*
X135830600Y-66619400D03*
X147830600Y-60619400D03*
X147830600Y-66619400D03*
D14*
%TO.P,SW1,1,A*%
%TO.N,Net-(SW1-A)*%
X137830600Y-62369400D03*
%TO.P,SW1,2,B*%
%TO.N,GNDREF*%
X141830600Y-62369400D03*
%TO.P,SW1,3,C*%
%TO.N,unconnected-(SW1-C-Pad3)*%
X145830600Y-62369400D03*
%TD*%
D16*
%TO.P,RV2,1,1*%
%TO.N,unconnected-(RV2-Pad1)*%
X131245600Y-72834400D03*
D17*
%TO.P,RV2,2,2*%
%TO.N,GNDREF*%
X131245600Y-75334400D03*
%TO.P,RV2,3,3*%
%TO.N,Net-(C5-Pad2)*%
X131245600Y-77834400D03*
%TD*%
D11*
%TO.P,TP1,1,1*%
%TO.N,Net-(SW2-A)*%
X165345600Y-78364400D03*
%TD*%
%TO.P,TP6,1,1*%
%TO.N,Net-(C7-Pad2)*%
X169145600Y-81814400D03*
%TD*%
D23*
%TO.P,LS1,1,1*%
%TO.N,Net-(C7-Pad2)*%
X118545600Y-110134400D03*
D10*
%TO.P,LS1,2,2*%
%TO.N,GNDREF*%
X125045600Y-110134400D03*
%TD*%
D11*
%TO.P,R7,1*%
%TO.N,Net-(U1-1OUT)*%
X135445600Y-112364400D03*
D12*
%TO.P,R7,2*%
%TO.N,Net-(C8-Pad1)*%
X140525600Y-112364400D03*
%TD*%
D11*
%TO.P,R2,1*%
%TO.N,Net-(C2-Pad1)*%
X135445600Y-96614400D03*
D12*
%TO.P,R2,2*%
%TO.N,Net-(C2-Pad2)*%
X140525600Y-96614400D03*
%TD*%
D11*
%TO.P,TP5,1,1*%
%TO.N,Net-(U1-1THRES)*%
X169145600Y-78364400D03*
%TD*%
%TO.P,R9,1*%
%TO.N,Net-(R9-Pad1)*%
X135445600Y-118664400D03*
D12*
%TO.P,R9,2*%
%TO.N,Net-(U1-1THRES)*%
X140525600Y-118664400D03*
%TD*%
D10*
%TO.P,C6,1*%
%TO.N,Net-(C5-Pad2)*%
X159795600Y-93714400D03*
%TO.P,C6,2*%
%TO.N,Net-(U1-1OUT)*%
X162295600Y-93714400D03*
%TD*%
D11*
%TO.P,TP3,1,1*%
%TO.N,Net-(TP3-Pad1)*%
X165345600Y-85264400D03*
%TD*%
%TO.P,R8,1*%
%TO.N,Net-(U1-1THRES)*%
X135445600Y-115514400D03*
D12*
%TO.P,R8,2*%
%TO.N,Net-(C10-Pad2)*%
X140525600Y-115514400D03*
%TD*%
D24*
%TO.N,GNDREF*%
X133764900Y-110134400D03*
%TO.N,Net-(U1-2THRES)*%
X135615000Y-90616900D03*
%TO.N,Net-(C2-Pad2)*%
X147957800Y-98489300D03*
%TO.N,Net-(U1-1THRES)*%
X168197000Y-96636700D03*
%TO.N,Net-(C5-Pad2)*%
X129077000Y-87806200D03*
%TO.N,Net-(U1-1OUT)*%
X145286300Y-100012700D03*
%TO.N,Net-(C7-Pad2)*%
X135799600Y-104344800D03*
%TO.N,Net-(C9-Pad2)*%
X167735300Y-87252000D03*
%TO.N,Net-(C9-Pad1)*%
X166520500Y-96542300D03*
X167136200Y-87917400D03*
X161905200Y-98684000D03*
%TO.N,Net-(R6-Pad2)*%
X166658700Y-95090100D03*
X147568400Y-91441600D03*
%TO.N,Net-(R9-Pad1)*%
X171083000Y-117165200D03*
%TO.N,Net-(SW1-A)*%
X120805000Y-64258200D03*
%TD*%
D25*
%TO.N,GNDREF*%
X156373400Y-91864400D02*
X155995600Y-91864400D01*
X157465600Y-62369400D02*
X157465600Y-73716900D01*
X132502200Y-93967800D02*
X131375600Y-95094400D01*
X157764600Y-93255600D02*
X156373400Y-91864400D01*
X155995600Y-91864400D02*
X154145600Y-93714400D01*
X156645600Y-104664400D02*
X157764600Y-103545400D01*
X133764900Y-97483700D02*
X131375600Y-95094400D01*
X157465600Y-73716900D02*
X160496500Y-76747800D01*
X133764900Y-110134400D02*
X133764900Y-97483700D01*
X160496500Y-76747800D02*
X155995600Y-81248700D01*
X132502200Y-76591000D02*
X132502200Y-93967800D01*
X165345600Y-81596900D02*
X165345600Y-81814400D01*
X157764600Y-103545400D02*
X157764600Y-93255600D01*
X160496500Y-76747800D02*
X165345600Y-81596900D01*
X155995600Y-81248700D02*
X155995600Y-91864400D01*
X131245600Y-75334400D02*
X132502200Y-76591000D01*
%TO.N,Net-(U1-2THRES)*%
X151098500Y-110182100D02*
X150103400Y-109187000D01*
X150103400Y-101017200D02*
X151098500Y-100022100D01*
X135615000Y-90616900D02*
X135615000Y-71153800D01*
X152493800Y-101084100D02*
X152493800Y-108786800D01*
X155395600Y-98182300D02*
X152493800Y-101084100D01*
X155395600Y-94964400D02*
X155395600Y-98182300D01*
X156645600Y-93714400D02*
X155395600Y-94964400D01*
X152493800Y-108786800D02*
X151098500Y-110182100D01*
X135615000Y-71153800D02*
X131245600Y-66784400D01*
X150103400Y-109187000D02*
X150103400Y-101017200D01*
%TO.N,Net-(C2-Pad2)*%
X153043200Y-107763200D02*
X153594400Y-108314400D01*
X153594400Y-108314400D02*
X153594400Y-109086800D01*
X154145600Y-101014400D02*
X153043200Y-102116800D01*
X147957800Y-108411300D02*
X147957800Y-98489300D01*
X153594400Y-109086800D02*
X151521100Y-111160100D01*
X153043200Y-102116800D02*
X153043200Y-107763200D01*
X150706600Y-111160100D02*
X147957800Y-108411300D01*
X153594400Y-108314400D02*
X154145600Y-108314400D01*
X156645600Y-97364400D02*
X156645600Y-98514400D01*
X151521100Y-111160100D02*
X150706600Y-111160100D01*
X156645600Y-98514400D02*
X154145600Y-101014400D01*
%TO.N,Net-(U1-1THRES)*%
X134403100Y-100806900D02*
X134403100Y-114471900D01*
X142495500Y-106659100D02*
X142495500Y-98465100D01*
X135445600Y-99764400D02*
X134403100Y-100806900D01*
X168197000Y-96636700D02*
X168210500Y-96623200D01*
X168210500Y-96623200D02*
X168210500Y-94491700D01*
X168210500Y-94491700D02*
X170162900Y-92539300D01*
X134403100Y-114471900D02*
X135445600Y-115514400D01*
X170162900Y-92539300D02*
X170162900Y-79381700D01*
X142495500Y-98465100D02*
X143478500Y-97482100D01*
X143478500Y-107642100D02*
X142495500Y-106659100D01*
X170162900Y-79381700D02*
X169145600Y-78364400D01*
%TO.N,Net-(C5-Pad2)*%
X129642200Y-87806200D02*
X129642200Y-98441000D01*
X129642200Y-87806200D02*
X129077000Y-87806200D01*
X158166700Y-95343300D02*
X159795600Y-93714400D01*
X158166700Y-106793300D02*
X158166700Y-95343300D01*
X129642200Y-98441000D02*
X131375600Y-100174400D01*
X156645600Y-108314400D02*
X158166700Y-106793300D01*
X131245600Y-77834400D02*
X129642200Y-79437800D01*
X129642200Y-79437800D02*
X129642200Y-87806200D01*
%TO.N,Net-(U1-1OUT)*%
X145286300Y-100012700D02*
X145286300Y-103294300D01*
X139523900Y-108286100D02*
X135445600Y-112364400D01*
X145286300Y-103294300D02*
X143478500Y-105102100D01*
X162295600Y-93714400D02*
X161495600Y-94514400D01*
X161847700Y-94162300D02*
X161847700Y-92825800D01*
X165345600Y-89327900D02*
X165345600Y-88714400D01*
X161495600Y-94514400D02*
X161847700Y-94162300D01*
X159795600Y-96214400D02*
X161495600Y-94514400D01*
X140525600Y-102914400D02*
X140525600Y-103916100D01*
X159795600Y-97364400D02*
X159795600Y-96214400D01*
X161847700Y-92825800D02*
X165345600Y-89327900D01*
X139523900Y-104917800D02*
X139523900Y-108286100D01*
X140525600Y-103916100D02*
X139523900Y-104917800D01*
%TO.N,Net-(C7-Pad2)*%
X166826600Y-84133400D02*
X166826600Y-87376200D01*
X166534500Y-87668300D02*
X166534500Y-90665900D01*
X163591500Y-93608900D02*
X163591500Y-96068500D01*
X169145600Y-81814400D02*
X166826600Y-84133400D01*
X163591500Y-96068500D02*
X162295600Y-97364400D01*
X166534500Y-90665900D02*
X163591500Y-93608900D01*
X135799600Y-104344800D02*
X135445600Y-104698800D01*
X135445600Y-104698800D02*
X135445600Y-106064400D01*
X166826600Y-87376200D02*
X166534500Y-87668300D01*
%TO.N,Net-(C8-Pad2)*%
X163993200Y-93785900D02*
X164399100Y-93380000D01*
X162433000Y-99178600D02*
X163993200Y-97618400D01*
X162433000Y-99463900D02*
X162433000Y-99178600D01*
X162295600Y-99601300D02*
X162433000Y-99463900D01*
X162295600Y-101014400D02*
X162295600Y-99601300D01*
X165412000Y-93380000D02*
X164399100Y-93380000D01*
X163993200Y-97618400D02*
X163993200Y-93785900D01*
%TO.N,Net-(C9-Pad2)*%
X165412000Y-97190000D02*
X166424900Y-97190000D01*
X163517300Y-103442700D02*
X163517300Y-99363500D01*
X163517300Y-99363500D02*
X164399100Y-98481700D01*
X167808800Y-96104900D02*
X167808800Y-87325500D01*
X162295600Y-104664400D02*
X163517300Y-103442700D01*
X167808800Y-87325500D02*
X167735300Y-87252000D01*
X165359600Y-97190000D02*
X164399100Y-97190000D01*
X166723700Y-97190000D02*
X167808800Y-96104900D01*
X166424900Y-97190000D02*
X166723700Y-97190000D01*
X164399100Y-98481700D02*
X164399100Y-97190000D01*
X165359600Y-97190000D02*
X165412000Y-97190000D01*
%TO.N,Net-(C9-Pad1)*%
X160904100Y-103555900D02*
X160904100Y-99685100D01*
X166513700Y-95920000D02*
X166520500Y-95920000D01*
X166520500Y-95920000D02*
X166699000Y-95920000D01*
X165412000Y-95920000D02*
X166424900Y-95920000D01*
X166424900Y-95920000D02*
X166513700Y-95920000D01*
X166520500Y-96542300D02*
X166520500Y-95920000D01*
X167271600Y-95347400D02*
X167271600Y-88052800D01*
X159795600Y-104664400D02*
X160904100Y-103555900D01*
X167271600Y-88052800D02*
X167136200Y-87917400D01*
X160904100Y-99685100D02*
X161905200Y-98684000D01*
X166699000Y-95920000D02*
X167271600Y-95347400D01*
%TO.N,Net-(C10-Pad2)*%
X165412000Y-99730000D02*
X164399100Y-99730000D01*
X164399100Y-106210900D02*
X162295600Y-108314400D01*
X164399100Y-99730000D02*
X164399100Y-106210900D01*
%TO.N,Net-(C10-Pad1)*%
X163919000Y-99642000D02*
X165101000Y-98460000D01*
X158670800Y-96678800D02*
X158670800Y-107189600D01*
X160911200Y-93206700D02*
X160911200Y-94438400D01*
X158670800Y-107189600D02*
X159795600Y-108314400D01*
X165101000Y-98460000D02*
X165412000Y-98460000D01*
X163919000Y-104625300D02*
X163919000Y-99642000D01*
X160911200Y-94438400D02*
X158670800Y-96678800D01*
X165412000Y-98460000D02*
X166424900Y-98460000D01*
X157245600Y-86764400D02*
X157245600Y-89541100D01*
X160229900Y-108314400D02*
X163919000Y-104625300D01*
X167694900Y-99730000D02*
X171000000Y-99730000D01*
X159795600Y-108314400D02*
X160229900Y-108314400D01*
X157245600Y-89541100D02*
X160911200Y-93206700D01*
X166424900Y-98460000D02*
X167694900Y-99730000D01*
%TO.N,+5V*%
X152092100Y-104108500D02*
X151098500Y-105102100D01*
X151098500Y-94942100D02*
X152092100Y-95935700D01*
X152092100Y-95935700D02*
X152092100Y-104108500D01*
%TO.N,Net-(U1-2DISCH)*%
X140525600Y-73564400D02*
X140525600Y-93464400D01*
X131245600Y-64284400D02*
X140525600Y-73564400D01*
%TO.N,Net-(R6-Pad2)*%
X166658700Y-95090100D02*
X166629500Y-95060900D01*
X166424900Y-94856300D02*
X166658700Y-95090100D01*
X143277200Y-109214400D02*
X140525600Y-109214400D01*
X147356100Y-105135500D02*
X143277200Y-109214400D01*
X166629500Y-95060900D02*
X166658700Y-95090100D01*
X147568400Y-91441600D02*
X147356100Y-91653900D01*
X147356100Y-91653900D02*
X147356100Y-105135500D01*
X147568400Y-91441600D02*
X154745600Y-84264400D01*
X165412000Y-94650000D02*
X166424900Y-94650000D01*
X166424900Y-94650000D02*
X166424900Y-94856300D01*
%TO.N,Net-(R9-Pad1)*%
X131245600Y-83884400D02*
X131245600Y-85086100D01*
X130043900Y-97449800D02*
X133163200Y-100569100D01*
X130824600Y-85086100D02*
X130043900Y-85866800D01*
X130043900Y-85866800D02*
X130043900Y-97449800D01*
X172012900Y-101000000D02*
X172012900Y-116235300D01*
X172012900Y-116235300D02*
X171083000Y-117165200D01*
X131245600Y-85086100D02*
X130824600Y-85086100D01*
X133163200Y-116382000D02*
X135445600Y-118664400D01*
X171000000Y-101000000D02*
X172012900Y-101000000D01*
X133163200Y-100569100D02*
X133163200Y-116382000D01*
%TO.N,Net-(SW1-A)*%
X116375600Y-68687600D02*
X116375600Y-95734400D01*
X120805000Y-64258200D02*
X116375600Y-68687600D01*
%TO.N,Net-(SW2-A)*%
X165412000Y-101000000D02*
X166424900Y-101000000D01*
X157961500Y-61166700D02*
X161005500Y-64210700D01*
X172058100Y-100132500D02*
X172058100Y-79169700D01*
X172058100Y-79169700D02*
X169803300Y-76914900D01*
X161005500Y-74024300D02*
X165345600Y-78364400D01*
X171746300Y-100444300D02*
X172058100Y-100132500D01*
X154668300Y-61166700D02*
X157961500Y-61166700D01*
X169803300Y-76914900D02*
X166795100Y-76914900D01*
X153465600Y-62369400D02*
X154668300Y-61166700D01*
X166795100Y-76914900D02*
X165345600Y-78364400D01*
X161005500Y-64210700D02*
X161005500Y-74024300D01*
X166980600Y-100444300D02*
X171746300Y-100444300D01*
X166424900Y-101000000D02*
X166980600Y-100444300D01*
%TO.N,Net-(TP3-Pad1)*%
X168718600Y-77359000D02*
X169606700Y-77359000D01*
X169606700Y-77359000D02*
X171000000Y-78752300D01*
X171000000Y-78752300D02*
X171000000Y-93380000D01*
X166424900Y-84185100D02*
X166424900Y-79652700D01*
X166424900Y-79652700D02*
X168718600Y-77359000D01*
X165345600Y-85264400D02*
X166424900Y-84185100D01*
%TD*%
M02*
